<svg width="78" height="81" viewBox="0 0 78 81" xmlns="http://www.w3.org/2000/svg"><title>wedding-planning</title><g id="Welcome" fill="none" fill-rule="evenodd"><g id="Desktop" transform="translate(-120 -893)" fill="#FFF"><g id="icon-Section" transform="translate(-34 834)"><g id="whole-market" transform="translate(154 59)"><g id="wedding-planning" transform="translate(.421 .463)"><g id="Group"><path d="M75.662.054h-57.18c-.918 0-1.661.802-1.661 1.792V37.47H1.66C.743 37.47 0 38.272 0 39.262v30.373C0 75.625 4.518 80.5 10.071 80.5h57.18c5.554 0 10.072-4.875 10.072-10.866V1.846c0-.99-.744-1.792-1.661-1.792zm-72.34 69.58v-28.58H16.82v28.58c0 4.016-3.028 7.283-6.75 7.283-3.721 0-6.75-3.267-6.75-7.282zm70.68 0c0 4.016-3.029 7.283-6.75 7.283H17.54c1.616-1.928 2.602-4.484 2.602-7.282V3.638h53.86v65.997z" id="Shape"/><path d="M44.74 20.752h21.287c.917 0 1.66-.802 1.66-1.792s-.743-1.792-1.66-1.792H44.739c-.917 0-1.66.802-1.66 1.792s.743 1.792 1.66 1.792zM44.74 40.437h21.287c.917 0 1.66-.802 1.66-1.792s-.743-1.792-1.66-1.792H44.739c-.917 0-1.66.802-1.66 1.792s.743 1.792 1.66 1.792zM44.74 60.123h21.287c.917 0 1.66-.802 1.66-1.792s-.743-1.792-1.66-1.792H44.739c-.917 0-1.66.802-1.66 1.792s.743 1.792 1.66 1.792zM29.412 22.768c.314.358.751.562 1.208.562h.014a1.61 1.61 0 0 0 1.213-.584l9.123-10.78c.619-.731.57-1.865-.107-2.532-.677-.667-1.728-.616-2.346.115l-7.918 9.355-2.464-2.815c-.63-.72-1.682-.752-2.349-.073-.667.68-.696 1.814-.067 2.533l3.693 4.22zM38.517 30.09l-7.918 9.355-2.465-2.815c-.63-.72-1.68-.752-2.348-.073-.667.68-.696 1.814-.067 2.533l3.693 4.219c.314.358.751.561 1.208.561h.014a1.61 1.61 0 0 0 1.213-.584l9.123-10.78c.618-.73.57-1.864-.107-2.531-.677-.667-1.728-.616-2.346.115zM38.517 50.631l-7.918 9.355-2.465-2.816c-.63-.72-1.68-.752-2.348-.072-.667.68-.696 1.814-.067 2.533l3.693 4.219c.314.358.751.561 1.208.561h.014a1.61 1.61 0 0 0 1.213-.584l9.123-10.78c.618-.73.57-1.864-.107-2.531-.677-.668-1.728-.616-2.346.115z" id="Shape"/></g></g></g></g></g></g></svg>