<svg width="34" height="33" viewBox="0 0 34 33" xmlns="http://www.w3.org/2000/svg"><title>google-plus</title><g id="Welcome" fill="none" fill-rule="evenodd"><g id="Desktop" transform="translate(-42 -1812)" fill="#DD4B39"><g id="social" transform="translate(42 1812)"><g id="google-plus"><path d="M0 0v32.98h33.089V0H0zm19.29 17.878c-.567 3.705-3.338 5.828-6.926 5.828-4.032 0-7.3-3.258-7.3-7.276s3.268-7.276 7.3-7.276c1.95 0 3.66.694 4.904 1.898l-2.096 2.088c-.71-.712-1.68-1.092-2.808-1.092-2.373 0-4.297 2.017-4.297 4.382 0 2.366 1.924 4.325 4.297 4.325 1.99 0 3.496-.958 3.93-2.877h-3.93v-2.923h6.907a8.5 8.5 0 0 1 .125 1.475c0 .506-.036.988-.107 1.448zm8.766-.906h-2.558v2.548h-1.817v-2.548h-2.558v-1.813h2.558v-2.55h1.817v2.55h2.558v1.813z" id="Shape"/></g></g></g></g></svg>