<svg width="88" height="93" viewBox="0 0 88 93" xmlns="http://www.w3.org/2000/svg"><title>graph Icon</title><g id="Welcome" fill="none" fill-rule="evenodd"><g id="Desktop" transform="translate(-583 -1085)" fill="#FFF"><g id="icon-Section" transform="translate(-34 834)"><g id="holistic-planning" transform="translate(617 251)"><g id="graph-Icon" transform="translate(.643 .768)"><path d="M86.64 6.1H44.763V1.524C44.764.682 44.118 0 43.32 0c-.799 0-1.444.682-1.444 1.525v4.574H0v64.045h39.834L22.083 88.889a1.584 1.584 0 0 0 0 2.156c.281.297.651.447 1.02.447.37 0 .74-.15 1.022-.447L41.875 72.3v14.617c0 .843.646 1.525 1.445 1.525.798 0 1.444-.682 1.444-1.525V72.3l17.75 18.745c.282.297.652.447 1.021.447.37 0 .74-.15 1.021-.447a1.584 1.584 0 0 0 0-2.156l-17.75-18.745h39.833V6.099zM83.75 67.093H2.888V9.149h80.863v57.945z" id="Shape"/><path d="M51.984 64.044c.798 0 1.444-.681 1.444-1.525v-4.574c0-.844-.646-1.525-1.444-1.525-.799 0-1.444.681-1.444 1.525v4.574c0 .844.645 1.525 1.444 1.525zM57.76 50.32c-.799 0-1.445.682-1.445 1.525V62.52c0 .844.646 1.525 1.444 1.525.799 0 1.444-.681 1.444-1.525V51.845c0-.843-.645-1.525-1.444-1.525zM63.535 53.37c-.798 0-1.444.682-1.444 1.525v7.624c0 .844.646 1.525 1.444 1.525.799 0 1.444-.681 1.444-1.525v-7.624c0-.843-.645-1.525-1.444-1.525zM69.311 42.696c-.798 0-1.444.682-1.444 1.525v18.298c0 .844.646 1.525 1.444 1.525.799 0 1.444-.681 1.444-1.525V44.221c0-.843-.645-1.525-1.444-1.525zM75.087 48.796c-.798 0-1.444.681-1.444 1.524v12.2c0 .843.646 1.524 1.444 1.524.799 0 1.444-.681 1.444-1.525V50.32c0-.843-.645-1.524-1.444-1.524zM11.552 57.945h14.44c.798 0 1.444-.682 1.444-1.525 0-.843-.646-1.525-1.444-1.525h-14.44c-.799 0-1.444.682-1.444 1.525 0 .843.645 1.525 1.444 1.525zM33.212 60.994h-21.66c-.799 0-1.444.682-1.444 1.525 0 .844.645 1.525 1.444 1.525h21.66c.798 0 1.444-.681 1.444-1.525 0-.843-.646-1.525-1.444-1.525zM43.255 28.373a17.588 17.588 0 0 0-.116-1.08 19.411 19.411 0 0 0-.094-.648 18.9 18.9 0 0 0-.245-1.186c-.042-.175-.081-.352-.129-.526-.11-.404-.237-.8-.372-1.192-.058-.168-.113-.337-.175-.504a17.176 17.176 0 0 0-.458-1.078c-.086-.189-.167-.38-.26-.567a17.187 17.187 0 0 0-.476-.87c-.132-.23-.257-.466-.399-.691-.127-.2-.267-.39-.401-.584-.2-.29-.393-.583-.61-.86l-.002-.004c-.337-.431-.688-.85-1.065-1.248a16.713 16.713 0 0 0-1.132-1.075c-.02-.017-.037-.037-.056-.054-.25-.216-.513-.41-.773-.61-.197-.155-.392-.317-.6-.462-.197-.137-.402-.259-.602-.387a16.5 16.5 0 0 0-.884-.538c-.158-.087-.32-.164-.481-.246a16.113 16.113 0 0 0-1.082-.51c-.141-.06-.284-.11-.425-.165-.386-.15-.776-.289-1.174-.409-.156-.047-.315-.087-.473-.128-.375-.1-.753-.19-1.139-.264-.204-.04-.41-.069-.615-.099-.335-.049-.67-.092-1.01-.12a14.86 14.86 0 0 0-.784-.042c-.17-.006-.337-.027-.51-.027-.13 0-.256.017-.386.021-.127.003-.253-.009-.381-.003l-.57.037-.015.017c-8.524.731-15.253 8.277-15.253 17.464 0 9.669 7.45 17.536 16.606 17.536 4.157 0 7.953-1.633 10.87-4.311.04-.034.09-.049.127-.089.023-.024.03-.056.052-.082 3.069-2.899 5.115-6.97 5.486-11.55l.027-.024.03-.67c.005-.135-.007-.266-.004-.4 0-.137.018-.271.018-.41 0-.186-.022-.368-.026-.552-.009-.272-.02-.54-.04-.81zm-15.82-13.086c.144.007.288.01.431.023.15.012.3.027.45.045.327.042.65.093.97.157.098.02.194.037.291.058.393.089.781.192 1.161.316.023.008.048.014.07.021 4.278 1.415 7.66 4.987 9 9.503l.02.075c.117.401.215.81.299 1.226.02.102.036.204.055.306.06.339.11.68.149 1.027.017.157.03.315.043.474.011.15.014.303.022.454h-12.96V15.287zm-14.44 14.448c0-7.208 5.017-13.186 11.553-14.288V30.44l.001.047.002.021.05 1.513h.793l9.112 9.622c-2.216 1.62-4.898 2.577-7.792 2.577-7.564 0-13.718-6.499-13.718-14.486zm23.698 9.907l-7.215-7.62h10.766a14.746 14.746 0 0 1-3.55 7.62zM56.315 22.873h11.552c.799 0 1.444-.682 1.444-1.525 0-.843-.645-1.525-1.444-1.525H56.315c-.798 0-1.443.682-1.443 1.525 0 .843.645 1.525 1.443 1.525zM74.077 20.24a1.53 1.53 0 0 0-.434 1.083c0 .412.158.808.42 1.068.272.29.633.457 1.024.457.376 0 .751-.168 1.026-.442.26-.29.418-.686.418-1.083 0-.396-.159-.794-.418-1.082-.55-.565-1.533-.55-2.036 0zM70.755 15.249h4.332c.799 0 1.444-.682 1.444-1.525 0-.843-.645-1.525-1.444-1.525h-4.332c-.798 0-1.444.682-1.444 1.525 0 .843.646 1.525 1.444 1.525zM56.315 15.249h2.888c.799 0 1.444-.682 1.444-1.525 0-.843-.645-1.525-1.444-1.525h-2.888c-.798 0-1.443.682-1.443 1.525 0 .843.645 1.525 1.443 1.525zM64.98 15.23c.39 0 .75-.168 1.025-.443.26-.29.418-.67.418-1.082 0-.414-.158-.795-.418-1.083-.535-.564-1.532-.564-2.05 0a1.609 1.609 0 0 0 0 2.165c.272.275.633.443 1.024.443z" id="Shape"/></g></g></g></g></g></svg>