<svg width="98" height="71" viewBox="0 0 98 71" xmlns="http://www.w3.org/2000/svg"><title>handshake</title><g id="Welcome" fill="none" fill-rule="evenodd"><g id="Desktop" transform="translate(-573 -896)" fill="#FFF"><g id="icon-Section" transform="translate(-34 834)"><g id="advice" transform="translate(607 60)"><g id="handshake" transform="translate(.272 2.796)"><g id="Group"><path d="M33.805 4.753l-1.213.645a5.893 5.893 0 0 1-4.852.301l-2.029-.774a1.464 1.464 0 0 0-.358-.194L12.865.107C11.93-.237 10.896.3 10.578 1.31L.098 34.327c-.159.495-.12 1.033.08 1.485.199.451.576.817 1.034.989l12.468 4.624c.2.065.398.108.577.108.756 0 1.452-.516 1.71-1.312l9.884-31.102.676.258a9.344 9.344 0 0 0 7.656-.473l1.213-.645a5.883 5.883 0 0 1 4.812-.323l22.929 8.54c-.239 1.032-.716 2.258-1.591 2.924-.975.732-2.426.732-4.335.022l-10.222-3.786a1.676 1.676 0 0 0-1.432.13c-.437.257-.755.71-.894 1.225-.02.065-1.432 5.786-5.946 8.41-2.844 1.656-6.384 1.721-10.54.194-.934-.344-1.969.193-2.287 1.204-.318 1.011.18 2.13 1.114 2.474 2.386.882 4.633 1.333 6.721 1.333 2.426 0 4.654-.58 6.682-1.763 4.037-2.345 6.125-6.453 7.08-8.905l8.53 3.162c3.043 1.14 5.588.968 7.557-.516 3.162-2.366 3.321-7.163 3.341-7.378.02-.86-.477-1.613-1.213-1.893l-24.34-9.076c-2.446-.904-5.21-.71-7.557.516zm-20.642 32.35l-9.068-3.356L13.382 4.43l9.068 3.356-9.287 29.316z" id="Shape"/><path d="M81.57 39.317l-4.275 4.26c-3.877 3.85-8.252 7.097-12.985 9.592L41.62 65.171c-.994.538-2.207.086-2.704-1.01-.498-1.076-.08-2.388.934-2.926l.279-.15 12.408-6.56c.895-.474 1.273-1.635.836-2.603-.438-.968-1.512-1.377-2.407-.904l-12.408 6.56-6.245 3.313c-.994.538-2.207.086-2.704-1.011a2.273 2.273 0 0 1-.1-1.656c.18-.56.537-.99 1.015-1.248l4.713-2.495 13.482-7.14c.895-.474 1.273-1.635.836-2.603-.438-.968-1.512-1.377-2.407-.904l-13.502 7.163-.517.28-6.443 3.42a1.822 1.822 0 0 1-1.531.107c-.518-.194-.915-.58-1.154-1.097-.497-1.076-.08-2.388.935-2.925l2.227-1.183 4.554-2.41 1.273-.666 10.46-5.55c.894-.473 1.272-1.634.835-2.602-.438-.968-1.512-1.376-2.406-.903l-11.335 6-4.952 2.625c-.994.516-2.207.086-2.704-1.011a2.273 2.273 0 0 1-.1-1.656c.18-.56.537-.99 1.014-1.248l8.65-4.581c.896-.473 1.273-1.635.836-2.603-.438-.968-1.511-1.376-2.406-.903l-8.65 4.581c-1.353.71-2.367 1.958-2.844 3.485a6.57 6.57 0 0 0 .258 4.646 5.974 5.974 0 0 0 1.73 2.215 6.514 6.514 0 0 0-.596 6.388c.656 1.463 1.81 2.56 3.221 3.076a5.246 5.246 0 0 0 1.79.322c-.02.968.159 1.936.577 2.818.974 2.151 2.982 3.398 5.05 3.398a5.13 5.13 0 0 0 2.466-.623l1.273-.667a6.69 6.69 0 0 0 .537 2.13c.974 2.15 2.983 3.398 5.051 3.398a5.13 5.13 0 0 0 2.466-.624l22.69-12.002c5.05-2.667 9.704-6.108 13.84-10.217l5.071-5.054 11.614-6.152c.895-.473 1.272-1.634.835-2.602L83.062 1.31c-.218-.473-.576-.817-1.034-.989a1.693 1.693 0 0 0-1.372.086l-11.852 6.26c-.895.472-1.273 1.634-.835 2.602L81.57 39.317zm-.954-34.543l12.588 27.854-8.61 4.56L72.006 9.334l8.61-4.56z" id="Shape"/></g></g></g></g></g></g></svg>