<svg width="34" height="33" viewBox="0 0 34 33" xmlns="http://www.w3.org/2000/svg"><title>linkedin</title><g id="Welcome" fill="none" fill-rule="evenodd"><g id="Desktop" transform="translate(-100 -1812)"><g id="social" transform="translate(42 1812)"><g id="linkedin" transform="translate(58)"><g id="Group"><path id="Rectangle-path" fill="#0084B1" d="M0 0h33.089v32.981H0z"/><g id="Shape" fill="#FFF"><path d="M2.85.016a2.776 2.776 0 0 1 2.762 2.766c-.003 1.59-1.327 2.788-2.78 2.754-1.475.03-2.77-1.198-2.77-2.764C.061 1.253 1.315.014 2.85.016zM4.46 22.975H1.213a.762.762 0 0 1-.763-.76V8.407c0-.42.342-.76.763-.76H4.46c.422 0 .763.34.763.76v13.806c0 .42-.341.76-.763.76zM23.153 12.497c0-2.895-2.354-5.241-5.258-5.241h-.833a4.672 4.672 0 0 0-4.092 2.407.352.352 0 0 0-.044-.005V7.963a.316.316 0 0 0-.317-.316H8.56a.316.316 0 0 0-.317.316v14.696c0 .175.141.316.316.316l4.14.001a.316.316 0 0 0 .316-.316v-8.49c0-1.468 1.175-2.686 2.647-2.703a2.673 2.673 0 0 1 2.709 2.669v8.525c0 .175.141.316.316.316l4.15.001a.316.316 0 0 0 .317-.316V12.497z" transform="translate(4.937 4.993)"/></g></g></g></g></g></g></svg>