<svg width="81" height="87" viewBox="0 0 81 87" xmlns="http://www.w3.org/2000/svg"><title>location</title><g id="Welcome" fill="none" fill-rule="evenodd"><g id="Desktop" transform="translate(-120 -1086)" fill="#FFF"><g id="icon-Section" transform="translate(-34 834)"><g id="local" transform="translate(154 252)"><g id="location" transform="translate(.575)"><path d="M78.363 69.392L53.16 60.771c.733-.958 1.475-1.945 2.22-2.958 9.183-12.496 13.84-22.186 13.84-28.801C69.22 13.014 56.133 0 40.05 0 23.964 0 10.88 13.014 10.88 29.012c0 6.615 4.656 16.305 13.84 28.801.75 1.021 1.499 2.016 2.237 2.982L1.74 69.39A2.412 2.412 0 0 0 .1 71.671c-.001 1.03.656 1.946 1.635 2.281l37.46 12.815a2.441 2.441 0 0 0 1.575 0l37.59-12.814a2.412 2.412 0 0 0 1.638-2.28c0-1.03-.657-1.946-1.636-2.28zm-13.992-40.38c0 10.442-16.164 30.893-24.322 40.125-8.157-9.23-24.32-29.676-24.32-40.125 0-13.338 10.91-24.19 24.32-24.19 13.411 0 24.322 10.852 24.322 24.19zM39.986 81.937L9.99 71.677l20.123-6.861c4.45 5.536 7.948 9.346 8.148 9.563a2.43 2.43 0 0 0 3.577 0c.2-.218 3.707-4.039 8.168-9.588l20.103 6.877-30.123 10.27z" id="Shape"/><path d="M40.05 39.992c6.87 0 12.46-5.56 12.46-12.392 0-6.834-5.59-12.393-12.46-12.393-6.871 0-12.46 5.56-12.46 12.393 0 6.833 5.589 12.392 12.46 12.392zM47.66 27.6c0 4.174-3.414 7.57-7.612 7.57-4.197 0-7.611-3.396-7.611-7.57s3.414-7.57 7.611-7.57c4.198 0 7.612 3.396 7.612 7.57z" id="Shape"/></g></g></g></g></g></svg>