<svg width="36" height="36" viewBox="0 0 36 36" xmlns="http://www.w3.org/2000/svg"><title>phone icon</title><g id="Welcome" fill="none" fill-rule="evenodd"><g id="Desktop" transform="translate(-767 -19)" fill="#FFF"><g id="phone-icon" transform="translate(767 19)"><path d="M28.44 22.292c-.737-.767-1.626-1.178-2.567-1.178-.935 0-1.83.403-2.598 1.17l-2.4 2.392c-.197-.106-.395-.205-.585-.303-.273-.137-.531-.266-.752-.403-2.248-1.428-4.29-3.289-6.25-5.696-.95-1.2-1.588-2.21-2.05-3.236.622-.57 1.2-1.162 1.761-1.731.213-.213.426-.433.638-.646 1.595-1.595 1.595-3.66 0-5.255l-2.073-2.074c-.236-.235-.479-.478-.707-.721A35.86 35.86 0 0 0 9.43 3.198c-.737-.73-1.618-1.117-2.545-1.117-.926 0-1.823.388-2.582 1.117l-.015.015-2.582 2.605A5.556 5.556 0 0 0 .057 9.35c-.182 2.218.471 4.283.973 5.635 1.23 3.32 3.068 6.395 5.81 9.691 3.326 3.973 7.329 7.11 11.901 9.32 1.747.827 4.078 1.807 6.684 1.974.159.008.326.015.478.015 1.754 0 3.228-.63 4.382-1.883.008-.015.023-.023.03-.038.396-.479.851-.912 1.33-1.375.326-.311.66-.638.987-.98.752-.782 1.147-1.693 1.147-2.628 0-.941-.403-1.845-1.17-2.605l-4.17-4.184zm2.719 7.997c-.008 0-.008.008 0 0-.297.32-.6.608-.927.927-.494.47-.995.964-1.466 1.519-.767.82-1.67 1.207-2.855 1.207-.114 0-.236 0-.35-.007-2.255-.145-4.352-1.026-5.924-1.778-4.299-2.08-8.073-5.035-11.21-8.78-2.59-3.12-4.321-6.007-5.468-9.106-.707-1.89-.965-3.364-.85-4.754A3.486 3.486 0 0 1 3.155 7.26l2.59-2.59c.372-.349.767-.539 1.154-.539.479 0 .866.289 1.11.532l.022.023c.463.432.904.88 1.367 1.359.236.243.479.486.722.737l2.073 2.073c.805.805.805 1.55 0 2.355-.22.22-.433.44-.653.653a39.642 39.642 0 0 1-1.906 1.853c-.016.015-.03.023-.038.038-.654.653-.532 1.291-.395 1.724l.023.068c.539 1.307 1.298 2.537 2.453 4.003l.007.007c2.096 2.583 4.307 4.595 6.745 6.137.311.198.63.357.934.509.273.137.531.266.752.403.03.015.06.037.09.053.259.129.502.19.753.19.63 0 1.025-.395 1.154-.524l2.598-2.598c.258-.258.668-.57 1.146-.57.471 0 .859.297 1.094.555l.015.015 4.185 4.185c.782.775.782 1.572.008 2.377zM19.447 8.56a9.631 9.631 0 0 1 5.24 2.719 9.681 9.681 0 0 1 2.72 5.24c.083.502.516.851 1.01.851.06 0 .114-.008.175-.015.562-.091.934-.623.843-1.185a11.714 11.714 0 0 0-3.289-6.342 11.714 11.714 0 0 0-6.342-3.288 1.03 1.03 0 0 0-1.185.835 1.014 1.014 0 0 0 .828 1.185zM35.943 15.874A19.272 19.272 0 0 0 30.528 5.43 19.272 19.272 0 0 0 20.085.016a1.021 1.021 0 0 0-1.177.835 1.03 1.03 0 0 0 .843 1.185c3.54.6 6.767 2.278 9.334 4.838a17.206 17.206 0 0 1 4.838 9.334c.084.501.517.85 1.01.85.061 0 .114-.007.175-.015.554-.083.934-.615.835-1.17z" id="Shape"/></g></g></g></svg>