<svg width="34" height="33" viewBox="0 0 34 33" xmlns="http://www.w3.org/2000/svg"><title>twitter</title><g id="Welcome" fill="none" fill-rule="evenodd"><g id="Desktop" transform="translate(-157 -1812)"><g id="social" transform="translate(42 1812)"><g id="twitter" transform="translate(115)"><g id="Group"><path id="Rectangle-path" fill="#50ABF1" d="M0 0h33.089v32.981H0z"/><path d="M4.384 24.448a14.205 14.205 0 0 0 7.614 2.197c7.867 0 14.244-6.357 14.244-14.197 0-.196-.004-.39-.012-.584.285-.223 2.045-1.629 2.476-2.533 0 0-1.429.592-2.828.732h-.009s.003 0 .008-.004c.129-.086 1.93-1.309 2.175-2.765 0 0-1.011.537-2.427 1.008-.234.078-.48.154-.732.225a4.992 4.992 0 0 0-3.648-1.577c-2.761 0-4.999 2.23-4.999 4.98 0 .388.045.765.13 1.128-.386-.016-6.261-.344-10.259-5.169 0 0-2.388 3.25 1.424 6.593 0 0-1.159-.046-2.159-.641 0 0-.367 3.938 3.95 4.945 0 0-.85.32-2.204.092 0 0 .758 3.182 4.593 3.479 0 0-3.033 2.731-7.339 2.09h.002z" id="Shape" fill="#FFF"/></g></g></g></g></g></svg>