<svg width="25" height="23" viewBox="0 0 25 23" xmlns="http://www.w3.org/2000/svg"><title>warning</title><g id="Welcome" fill="none" fill-rule="evenodd"><g id="Desktop" transform="translate(-500 -1532)" fill="#393939"><g id="footer" transform="translate(0 1522)"><g id="warning"><g id="Group-2" transform="translate(491)"><g id="warning" transform="translate(8.8 10.057)"><g id="Capa_1" transform="translate(.325 .686)"><g id="Group"><path d="M12.157 15.393c-.68 0-1.25.56-1.25 1.228 0 .668.57 1.227 1.25 1.227.654 0 1.249-.56 1.22-1.198a1.209 1.209 0 0 0-1.22-1.257z" id="Shape"/><path d="M23.722 19.744a4.13 4.13 0 0 0 .01-4.243L15.905 2.18C15.13.839 13.731.043 12.162.043c-1.57 0-2.97.8-3.744 2.132L.581 15.51a4.164 4.164 0 0 0 .015 4.269c.78 1.316 2.174 2.107 3.734 2.107h15.633c1.565 0 2.97-.8 3.759-2.142zm-1.7-.962a2.37 2.37 0 0 1-2.064 1.174H4.325c-.85 0-1.615-.428-2.04-1.15a2.29 2.29 0 0 1-.005-2.343l7.837-13.33a2.327 2.327 0 0 1 2.045-1.164c.854 0 1.619.437 2.044 1.169l7.832 13.33a2.26 2.26 0 0 1-.015 2.314z" id="Shape"/><path d="M11.847 6.772c-.595.167-.965.698-.965 1.341.03.388.055.781.085 1.17l.255 4.405c.03.501.425.865.935.865s.91-.388.934-.894c0-.305 0-.585.03-.894.055-.948.115-1.896.17-2.844.03-.614.085-1.228.115-1.842 0-.221-.03-.418-.115-.614-.255-.55-.85-.83-1.444-.693z" id="Shape"/></g></g></g></g></g></g></g></g></svg>