<?xml version="1.0" encoding="UTF-8" standalone="no"?>
<svg width="78px" height="81px" viewBox="0 0 78 81" version="1.1" xmlns="http://www.w3.org/2000/svg" xmlns:xlink="http://www.w3.org/1999/xlink">
    <!-- Generator: Sketch 39.1 (31720) - http://www.bohemiancoding.com/sketch -->
    <title>wedding-planning</title>
    <desc>Created with Sketch.</desc>
    <defs></defs>
    <g id="Welcome" stroke="none" stroke-width="1" fill="none" fill-rule="evenodd">
        <g id="Desktop" transform="translate(-120.000000, -893.000000)" fill="#FFFFFF">
            <g id="icon-Section" transform="translate(-34.000000, 834.000000)">
                <g id="whole-market" transform="translate(154.000000, 59.000000)">
                    <g id="wedding-planning" transform="translate(0.421264, 0.462510)">
                        <g id="Group">
                            <path d="M75.6620079,0.0542353349 L18.4815601,0.0542353349 C17.5640704,0.0542353349 16.8206446,0.856297094 16.8206446,1.84615169 L16.8206446,37.4701655 L1.66091547,37.4701655 C0.743425766,37.4701655 0,38.2722273 0,39.2620819 L0,69.6345862 C0,75.6257988 4.51769009,80.500528 10.0711271,80.500528 L67.2515748,80.500528 C72.8047904,80.500528 77.3231448,75.6260377 77.3231448,69.6345862 L77.3231448,1.84615169 C77.3229234,0.856297094 76.5794976,0.0542353349 75.6620079,0.0542353349 L75.6620079,0.0542353349 Z M3.32183095,69.6345862 L3.32183095,41.0539982 L16.8206446,41.0539982 L16.8206446,69.6345862 C16.8206446,73.6496735 13.7929065,76.9166953 10.0709056,76.9166953 C6.34956913,76.9166953 3.32183095,73.6496735 3.32183095,69.6345862 L3.32183095,69.6345862 Z M74.0010924,69.6345862 C74.0010924,73.6496735 70.9733542,76.9166953 67.2513534,76.9166953 L17.5399318,76.9166953 C19.1563347,74.9885933 20.1424756,72.4330817 20.1424756,69.6345862 L20.1424756,3.63806804 L74.0010924,3.63806804 L74.0010924,69.6345862 L74.0010924,69.6345862 Z" id="Shape"></path>
                            <path d="M44.7390836,20.751586 L66.0269265,20.751586 C66.9444162,20.751586 67.687842,19.9495242 67.687842,18.9596696 C67.687842,17.969815 66.9444162,17.1677533 66.0269265,17.1677533 L44.7390836,17.1677533 C43.8215939,17.1677533 43.0781681,17.969815 43.0781681,18.9596696 C43.0781681,19.9495242 43.8218153,20.751586 44.7390836,20.751586 L44.7390836,20.751586 Z" id="Shape"></path>
                            <path d="M44.7390836,40.4371012 L66.0269265,40.4371012 C66.9444162,40.4371012 67.687842,39.6350394 67.687842,38.6451848 C67.687842,37.6553302 66.9444162,36.8532685 66.0269265,36.8532685 L44.7390836,36.8532685 C43.8215939,36.8532685 43.0781681,37.6553302 43.0781681,38.6451848 C43.0781681,39.6350394 43.8218153,40.4371012 44.7390836,40.4371012 L44.7390836,40.4371012 Z" id="Shape"></path>
                            <path d="M44.7390836,60.1230942 L66.0269265,60.1230942 C66.9444162,60.1230942 67.687842,59.3210325 67.687842,58.3311779 C67.687842,57.3413233 66.9444162,56.5392615 66.0269265,56.5392615 L44.7390836,56.5392615 C43.8215939,56.5392615 43.0781681,57.3413233 43.0781681,58.3311779 C43.0781681,59.3207935 43.8218153,60.1230942 44.7390836,60.1230942 L44.7390836,60.1230942 Z" id="Shape"></path>
                            <path d="M29.412377,22.7680892 C29.7264008,23.1264724 30.1633323,23.3295563 30.6199733,23.3295563 L30.633925,23.3295563 C31.095881,23.3252557 31.5352485,23.1140485 31.8468362,22.7458694 L40.9701342,11.9654617 C41.5886591,11.2345988 41.5406033,10.1011519 40.8633927,9.43384229 C40.1859606,8.76701048 39.1353762,8.81837875 38.5168513,9.54900278 L30.599378,18.9042397 L28.1348009,16.0885418 C27.5045388,15.3689082 26.4530686,15.3368926 25.7864878,16.0161484 C25.1194642,16.695643 25.0897892,17.8295677 25.7193869,18.5492013 L29.412377,22.7680892 L29.412377,22.7680892 Z" id="Shape"></path>
                            <path d="M38.5168513,30.0900983 L30.599378,39.4448574 L28.134358,36.6296373 C27.5045388,35.9095259 26.4530686,35.8775103 25.7864878,36.5572439 C25.1194642,37.2367386 25.0897892,38.3706632 25.7193869,39.0902968 L29.412377,43.3087069 C29.7264008,43.6670901 30.1633323,43.870174 30.6199733,43.870174 L30.633925,43.870174 C31.095881,43.8658734 31.5352485,43.6546662 31.8468362,43.2864871 L40.9701342,32.5065572 C41.5882162,31.7756943 41.5406033,30.6422475 40.8633927,29.9749378 C40.1861821,29.3076282 39.1353762,29.3589964 38.5168513,30.0900983 L38.5168513,30.0900983 Z" id="Shape"></path>
                            <path d="M38.5168513,50.6309549 L30.599378,59.985714 L28.134358,57.1704939 C27.5045388,56.4503825 26.4530686,56.418128 25.7864878,57.0981005 C25.1194642,57.7775952 25.0897892,58.9115198 25.7193869,59.6311534 L29.412377,63.8495635 C29.7264008,64.2079467 30.1633323,64.4110306 30.6199733,64.4110306 L30.633925,64.4110306 C31.095881,64.40673 31.5352485,64.1955228 31.8468362,63.8273437 L40.9701342,53.0474138 C41.5882162,52.3165509 41.5406033,51.1831041 40.8633927,50.5157944 C40.1859606,49.8484848 39.1353762,49.900092 38.5168513,50.6309549 L38.5168513,50.6309549 Z" id="Shape"></path>
                        </g>
                    </g>
                </g>
            </g>
        </g>
    </g>
</svg>