<?xml version="1.0" encoding="UTF-8" standalone="no"?>
<svg width="34px" height="33px" viewBox="0 0 34 33" version="1.1" xmlns="http://www.w3.org/2000/svg" xmlns:xlink="http://www.w3.org/1999/xlink">
    <!-- Generator: Sketch 39.1 (31720) - http://www.bohemiancoding.com/sketch -->
    <title>google-plus</title>
    <desc>Created with Sketch.</desc>
    <defs></defs>
    <g id="Welcome" stroke="none" stroke-width="1" fill="none" fill-rule="evenodd">
        <g id="Desktop" transform="translate(-42.000000, -1812.000000)" fill="#DD4B39">
            <g id="social" transform="translate(42.000000, 1812.000000)">
                <g id="google-plus">
                    <path d="M0,0 L0,32.9804605 L33.0887156,32.9804605 L33.0887156,0 L0,0 L0,0 Z M19.2892263,17.8776776 C18.723408,21.5825066 15.9521836,23.7064474 12.3643599,23.7064474 C8.33247816,23.7064474 5.06368509,20.4483487 5.06368509,16.4296579 C5.06368509,12.4119803 8.33247816,9.15388158 12.3643599,9.15388158 C14.3147013,9.15388158 16.0236279,9.84760526 17.2675132,11.0518158 L15.1723229,13.1401513 C14.4627449,12.4276118 13.4917127,12.0478224 12.3643599,12.0478224 C9.99101618,12.0478224 8.06688555,14.0650197 8.06688555,16.4295855 C8.06688555,18.79625 9.99101618,20.7549013 12.3643599,20.7549013 C14.3535455,20.7549013 15.8599014,19.7965263 16.2944481,17.8776776 L12.3643599,17.8776776 L12.3643599,14.9554408 L19.2714378,14.9554408 C19.3543538,15.4262697 19.3963201,15.9190263 19.3963201,16.4295855 C19.3962475,16.9360197 19.3595088,17.4183553 19.2892263,17.8776776 L19.2892263,17.8776776 Z M28.0563237,16.971625 L25.4981978,16.971625 L25.4981978,19.5202961 L23.681161,19.5202961 L23.681161,16.971625 L21.1230351,16.971625 L21.1230351,15.1594474 L23.681161,15.1594474 L23.681161,12.6096908 L25.4981978,12.6096908 L25.4981978,15.1594474 L28.0563237,15.1594474 L28.0563237,16.971625 L28.0563237,16.971625 Z" id="Shape"></path>
                </g>
            </g>
        </g>
    </g>
</svg>