<?xml version="1.0" encoding="UTF-8" standalone="no"?>
<svg width="88px" height="93px" viewBox="0 0 88 93" version="1.1" xmlns="http://www.w3.org/2000/svg" xmlns:xlink="http://www.w3.org/1999/xlink">
    <!-- Generator: Sketch 39.1 (31720) - http://www.bohemiancoding.com/sketch -->
    <title>graph Icon</title>
    <desc>Created with Sketch.</desc>
    <defs></defs>
    <g id="Welcome" stroke="none" stroke-width="1" fill="none" fill-rule="evenodd">
        <g id="Desktop" transform="translate(-583.000000, -1085.000000)" fill="#FFFFFF">
            <g id="icon-Section" transform="translate(-34.000000, 834.000000)">
                <g id="holistic-planning" transform="translate(617.000000, 251.000000)">
                    <g id="graph-Icon" transform="translate(0.643334, 0.767932)">
                        <path d="M86.6392164,6.09944568 L44.7635951,6.09944568 L44.7635951,1.52486142 C44.7635951,0.681613055 44.118133,0 43.3196082,0 C42.5210834,0 41.8756212,0.681613055 41.8756212,1.52486142 L41.8756212,6.09944568 L0,6.09944568 L0,70.1436254 L39.8338237,70.1436254 L22.0828923,88.8887468 C21.5182934,89.4849676 21.5182934,90.4486801 22.0828923,91.0449009 C22.3644697,91.3422489 22.7341304,91.4916853 23.103791,91.4916853 C23.4734517,91.4916853 23.8431123,91.3422489 24.1246898,91.0449009 L41.8756212,72.2997794 L41.8756212,86.917101 C41.8756212,87.7603494 42.5210834,88.4419624 43.3196082,88.4419624 C44.118133,88.4419624 44.7635951,87.7603494 44.7635951,86.917101 L44.7635951,72.2997794 L62.5145266,91.0449009 C62.796104,91.3422489 63.1657647,91.4916853 63.5354253,91.4916853 C63.905086,91.4916853 64.2747466,91.3422489 64.5563241,91.0449009 C65.120923,90.4486801 65.120923,89.4849676 64.5563241,88.8887468 L46.8053926,70.1436254 L86.6392164,70.1436254 L86.6392164,6.09944568 L86.6392164,6.09944568 Z M83.7512425,67.0939025 L2.88797388,67.0939025 L2.88797388,9.14916853 L83.7512425,9.14916853 L83.7512425,67.0939025 L83.7512425,67.0939025 Z" id="Shape"></path>
                        <path d="M51.9835298,64.0441797 C52.7820546,64.0441797 53.4275168,63.3625666 53.4275168,62.5193183 L53.4275168,57.944734 C53.4275168,57.1014856 52.7820546,56.4198726 51.9835298,56.4198726 C51.185005,56.4198726 50.5395429,57.1014856 50.5395429,57.944734 L50.5395429,62.5193183 C50.5395429,63.3625666 51.185005,64.0441797 51.9835298,64.0441797 L51.9835298,64.0441797 Z" id="Shape"></path>
                        <path d="M57.7594776,50.3204269 C56.9609528,50.3204269 56.3154906,51.00204 56.3154906,51.8452883 L56.3154906,62.5193183 C56.3154906,63.3625666 56.9609528,64.0441797 57.7594776,64.0441797 C58.5580023,64.0441797 59.2034645,63.3625666 59.2034645,62.5193183 L59.2034645,51.8452883 C59.2034645,51.00204 58.5580023,50.3204269 57.7594776,50.3204269 L57.7594776,50.3204269 Z" id="Shape"></path>
                        <path d="M63.5354253,53.3701497 C62.7369005,53.3701497 62.0914384,54.0517628 62.0914384,54.8950112 L62.0914384,62.5193183 C62.0914384,63.3625666 62.7369005,64.0441797 63.5354253,64.0441797 C64.3339501,64.0441797 64.9794123,63.3625666 64.9794123,62.5193183 L64.9794123,54.8950112 C64.9794123,54.0517628 64.3339501,53.3701497 63.5354253,53.3701497 L63.5354253,53.3701497 Z" id="Shape"></path>
                        <path d="M69.3113731,42.6961198 C68.5128483,42.6961198 67.8673861,43.3777328 67.8673861,44.2209812 L67.8673861,62.5193183 C67.8673861,63.3625666 68.5128483,64.0441797 69.3113731,64.0441797 C70.1098979,64.0441797 70.75536,63.3625666 70.75536,62.5193183 L70.75536,44.2209812 C70.75536,43.3777328 70.1098979,42.6961198 69.3113731,42.6961198 L69.3113731,42.6961198 Z" id="Shape"></path>
                        <path d="M75.0873208,48.7955655 C74.2887961,48.7955655 73.6433339,49.4771785 73.6433339,50.3204269 L73.6433339,62.5193183 C73.6433339,63.3625666 74.2887961,64.0441797 75.0873208,64.0441797 C75.8858456,64.0441797 76.5313078,63.3625666 76.5313078,62.5193183 L76.5313078,50.3204269 C76.5313078,49.4771785 75.8858456,48.7955655 75.0873208,48.7955655 L75.0873208,48.7955655 Z" id="Shape"></path>
                        <path d="M11.5518955,57.944734 L25.9917649,57.944734 C26.7902897,57.944734 27.4357518,57.2631209 27.4357518,56.4198726 C27.4357518,55.5766242 26.7902897,54.8950112 25.9917649,54.8950112 L11.5518955,54.8950112 C10.7533707,54.8950112 10.1079086,55.5766242 10.1079086,56.4198726 C10.1079086,57.2631209 10.7533707,57.944734 11.5518955,57.944734 L11.5518955,57.944734 Z" id="Shape"></path>
                        <path d="M33.2116996,60.9944568 L11.5518955,60.9944568 C10.7533707,60.9944568 10.1079086,61.6760699 10.1079086,62.5193183 C10.1079086,63.3625666 10.7533707,64.0441797 11.5518955,64.0441797 L33.2116996,64.0441797 C34.0102244,64.0441797 34.6556865,63.3625666 34.6556865,62.5193183 C34.6556865,61.6760699 34.0102244,60.9944568 33.2116996,60.9944568 L33.2116996,60.9944568 Z" id="Shape"></path>
                        <path d="M43.2546288,28.3730965 C43.228637,28.0086546 43.1867614,27.6503122 43.1391098,27.2934946 C43.1102301,27.0769643 43.0813503,26.8604339 43.0452507,26.6454285 C42.9773833,26.2443899 42.892188,25.8509757 42.7997729,25.4590863 C42.7578973,25.2837272 42.7189096,25.1068433 42.671258,24.9330091 C42.561515,24.5289208 42.4344442,24.1324569 42.2987094,23.7405675 C42.2409499,23.5728327 42.1860784,23.4035731 42.123987,23.2373632 C41.9853642,22.8698716 41.8279697,22.513054 41.6662431,22.1592862 C41.5796039,21.9702034 41.4987406,21.7780708 41.4063255,21.5920377 C41.2575948,21.2946897 41.0944243,21.0095407 40.9298098,20.7228667 C40.798407,20.4910878 40.6727801,20.2562591 40.5312694,20.0305796 C40.4041985,19.8308228 40.2641318,19.64174 40.129841,19.4465577 C39.9305708,19.156834 39.7370766,18.8640606 39.5204785,18.5865359 C39.5204785,18.585011 39.5190346,18.585011 39.5175906,18.5834861 C39.1811416,18.1519504 38.8302528,17.7326135 38.4533722,17.3346246 C38.0923755,16.9534093 37.7111629,16.6011663 37.3212864,16.2595973 C37.3010706,16.2428239 37.2837428,16.2230007 37.2649709,16.2062272 C37.0151612,15.9896969 36.7523556,15.7960395 36.4924379,15.5962826 C36.2946117,15.4407468 36.0996735,15.2791114 35.8917394,15.1342496 C35.6953571,14.9970121 35.490311,14.8750232 35.2895968,14.7469348 C34.9993554,14.5609017 34.7076701,14.3763935 34.4058768,14.2086587 C34.2484822,14.1217416 34.0853117,14.0454986 33.9250292,13.963156 C33.5712523,13.7816975 33.2116996,13.6078633 32.8434829,13.4523275 C32.7019722,13.3928579 32.5590175,13.3425374 32.4175068,13.2876424 C32.0319623,13.138206 31.6420858,12.9994436 31.2435454,12.8789796 C31.0875948,12.8317089 30.9287563,12.7920625 30.7713617,12.7508912 C30.3959251,12.6502504 30.0176005,12.5602835 29.632056,12.4870902 C29.4284538,12.4474438 29.2219637,12.4184714 29.0169175,12.3879742 C28.6819126,12.3391786 28.3469076,12.2964825 28.0061267,12.2675101 C27.746209,12.2461621 27.4848474,12.2339632 27.2234858,12.2263389 C27.0530953,12.2202394 26.8855928,12.1988914 26.7137584,12.1988914 C26.5837996,12.1988914 26.4567287,12.2156648 26.3267699,12.2202394 C26.199699,12.2232892 26.0740722,12.2110903 25.9455573,12.2171897 L25.3751825,12.2537864 L25.3607426,12.2705599 C16.8368877,13.0024933 10.1079086,20.5475077 10.1079086,29.7347977 C10.1079086,39.403944 17.5574372,47.2707041 26.7137584,47.2707041 C30.8709968,47.2707041 34.6672384,45.6375775 37.5840921,42.9599208 C37.6245237,42.9263739 37.6736192,42.9111253 37.7111629,42.8714789 C37.7342667,42.8470811 37.7414866,42.815059 37.7631464,42.7891363 C40.8316187,39.8903748 42.8777482,35.8189948 43.2488528,31.2398359 L43.2762886,31.2154382 L43.3051683,30.5444991 C43.3109443,30.4103113 43.2993924,30.2791732 43.3022803,30.1449854 C43.3022803,30.0077479 43.3196082,29.8735601 43.3196082,29.7347977 C43.3196082,29.5487646 43.2979484,29.3673061 43.2936164,29.1827979 C43.2849525,28.9113725 43.2748446,28.6429969 43.2546288,28.3730965 L43.2546288,28.3730965 Z M27.4357518,15.2867357 C27.5787066,15.2943601 27.7231052,15.2974098 27.86606,15.3096087 C28.0162346,15.3218076 28.1664092,15.3370562 28.3151399,15.3553545 C28.6429249,15.3965258 28.966378,15.4483711 29.2869431,15.5124152 C29.3836902,15.5322384 29.4804374,15.5490119 29.5771845,15.57036 C29.9699489,15.6588019 30.3583814,15.7624925 30.73815,15.8860063 C30.7612538,15.8936306 30.7858015,15.89973 30.8089053,15.9073543 C35.0859946,17.3224257 38.4678121,20.8936512 39.8078319,25.4102907 C39.8150519,25.4346885 39.8208278,25.4606111 39.8280478,25.4850089 C39.9450107,25.8860475 40.0432018,26.2947103 40.1269531,26.7109975 C40.1471689,26.8131632 40.1630527,26.9153289 40.1818246,27.0174947 C40.242472,27.3560139 40.2915676,27.6975829 40.3305552,28.0437264 C40.3478831,28.2007871 40.3608789,28.3593727 40.3738748,28.5179583 C40.3854267,28.6673947 40.3883147,28.8214057 40.3955346,28.972367 L27.4357518,28.972367 L27.4357518,15.2867357 L27.4357518,15.2867357 Z M12.9958825,29.7347977 C12.9958825,22.5267778 18.0122931,16.549321 24.547778,15.4468462 L24.547778,30.4408086 L24.549222,30.4880793 C24.549222,30.4957036 24.5506659,30.501803 24.5506659,30.5094273 L24.6012055,32.0220898 L25.3939543,32.0220898 L34.5055119,41.6439654 C32.2904359,43.2648931 29.6075082,44.2209812 26.7137584,44.2209812 C19.1501548,44.2209812 12.9958825,37.7220218 12.9958825,29.7347977 L12.9958825,29.7347977 Z M36.6931521,39.6418224 L29.4775494,32.0220898 L40.243916,32.0220898 C39.802056,34.9452492 38.5342355,37.57716 36.6931521,39.6418224 L36.6931521,39.6418224 Z" id="Shape"></path>
                        <path d="M56.3154906,22.8729213 L67.8673861,22.8729213 C68.6659109,22.8729213 69.3113731,22.1913083 69.3113731,21.3480599 C69.3113731,20.5048115 68.6659109,19.8231985 67.8673861,19.8231985 L56.3154906,19.8231985 C55.5169659,19.8231985 54.8715037,20.5048115 54.8715037,21.3480599 C54.8715037,22.1913083 55.5169659,22.8729213 56.3154906,22.8729213 L56.3154906,22.8729213 Z" id="Shape"></path>
                        <path d="M74.07653,20.2406489 C73.8007285,20.5151239 73.6433339,20.910063 73.6433339,21.3233005 C73.6433339,21.7350131 73.8007285,22.131477 74.0620901,22.3907035 C74.3350036,22.6804271 74.6960004,22.8481619 75.0873208,22.8481619 C75.4627574,22.8481619 75.838194,22.6804271 76.1125516,22.4059521 C76.3724692,22.1162284 76.5313078,21.7197644 76.5313078,21.3233005 C76.5313078,20.9268365 76.3724692,20.5288477 76.1125516,20.2406489 C75.5638365,19.6764501 74.5804814,19.6916988 74.07653,20.2406489 L74.07653,20.2406489 Z" id="Shape"></path>
                        <path d="M70.75536,15.2486142 L75.0873208,15.2486142 C75.8858456,15.2486142 76.5313078,14.5670012 76.5313078,13.7237528 C76.5313078,12.8805044 75.8858456,12.1988914 75.0873208,12.1988914 L70.75536,12.1988914 C69.9568352,12.1988914 69.3113731,12.8805044 69.3113731,13.7237528 C69.3113731,14.5670012 69.9568352,15.2486142 70.75536,15.2486142 L70.75536,15.2486142 Z" id="Shape"></path>
                        <path d="M56.3154906,15.2486142 L59.2034645,15.2486142 C60.0019893,15.2486142 60.6474514,14.5670012 60.6474514,13.7237528 C60.6474514,12.8805044 60.0019893,12.1988914 59.2034645,12.1988914 L56.3154906,12.1988914 C55.5169659,12.1988914 54.8715037,12.8805044 54.8715037,13.7237528 C54.8715037,14.5670012 55.5169659,15.2486142 56.3154906,15.2486142 L56.3154906,15.2486142 Z" id="Shape"></path>
                        <path d="M64.9794123,15.2295534 C65.3692887,15.2295534 65.7302855,15.0618187 66.004643,14.7873436 C66.2645606,14.49762 66.4233992,14.1164046 66.4233992,13.704692 C66.4233992,13.2914546 66.2645606,12.9102392 66.004643,12.6220404 C65.4703678,12.0578417 64.4725728,12.0578417 63.9541815,12.6220404 C63.6928199,12.9102392 63.5354253,13.2914546 63.5354253,13.704692 C63.5354253,14.1164046 63.6928199,14.49762 63.9541815,14.7873436 C64.2270951,15.0618187 64.5880918,15.2295534 64.9794123,15.2295534 L64.9794123,15.2295534 Z" id="Shape"></path>
                    </g>
                </g>
            </g>
        </g>
    </g>
</svg>