<?xml version="1.0" encoding="UTF-8" standalone="no"?>
<svg width="98px" height="71px" viewBox="0 0 98 71" version="1.1" xmlns="http://www.w3.org/2000/svg" xmlns:xlink="http://www.w3.org/1999/xlink">
    <!-- Generator: Sketch 39.1 (31720) - http://www.bohemiancoding.com/sketch -->
    <title>handshake</title>
    <desc>Created with Sketch.</desc>
    <defs></defs>
    <g id="Welcome" stroke="none" stroke-width="1" fill="none" fill-rule="evenodd">
        <g id="Desktop" transform="translate(-573.000000, -896.000000)" fill="#FFFFFF">
            <g id="icon-Section" transform="translate(-34.000000, 834.000000)">
                <g id="advice" transform="translate(607.000000, 60.000000)">
                    <g id="handshake" transform="translate(0.271886, 2.796204)">
                        <g id="Group">
                            <path d="M33.8049044,4.75280212 L32.5918621,5.39806647 C31.0805306,6.19389251 29.310682,6.30143657 27.7396928,5.69918984 L25.7113269,4.92487262 C25.5920113,4.83883737 25.4726956,4.77431093 25.35338,4.73129331 L12.8650098,0.106898794 C11.9303707,-0.237242193 10.8963018,0.3004781 10.5781268,1.31139225 L0.0982365423,34.3274182 C-0.0608509756,34.8221209 -0.0210790961,35.3598412 0.177780301,35.8115262 C0.376639699,36.2632113 0.754472553,36.6288611 1.21184917,36.8009316 L13.6803334,41.4253261 C13.8791928,41.4898525 14.0780522,41.5328701 14.2570256,41.5328701 C15.0126913,41.5328701 15.7086992,41.0166587 15.9672164,40.2208326 L25.8505285,9.1190909 L26.5266504,9.37719664 C29.0123929,10.3235844 31.7964245,10.1515139 34.1827372,8.90400278 L35.3957796,8.25873843 C36.887225,7.4629124 38.6371877,7.35536834 40.208177,7.93610626 L63.1366655,16.4751045 C62.8980342,17.5075275 62.4207717,18.7335297 61.5457903,19.4003029 C60.5713793,20.1316025 59.1197057,20.1316025 57.2106555,19.4218117 L46.9892824,15.6362608 C46.5120199,15.4641904 45.9949854,15.507208 45.5574948,15.7653137 C45.1200041,16.0234195 44.8018291,16.4751045 44.6626275,16.991316 C44.6427415,17.0558424 43.2308398,22.7771863 38.7167315,25.4012614 C35.8730421,27.0574399 32.3333448,27.1219663 28.1771834,25.5948407 C27.2425443,25.2506997 26.2084754,25.78842 25.8903004,26.7993341 C25.5721253,27.8102483 26.0692738,28.9287065 27.003913,29.2728475 C29.3902258,30.1547087 31.637337,30.6063938 33.7253606,30.6063938 C36.1514453,30.6063938 38.3786705,30.0256559 40.4070364,28.8426712 C44.4438821,26.4982108 46.5319058,22.3900277 47.4864309,19.9380232 L56.0174991,23.0998185 C59.0600478,24.2397855 61.6054481,24.067715 63.5741562,22.583607 C66.7360206,20.2176377 66.8951081,15.4211727 66.914994,15.2060846 C66.93488,14.3457321 66.4377315,13.5929237 65.7019517,13.3133092 L41.3615615,4.23659064 C38.9155909,3.33322055 36.1514453,3.52679986 33.8049044,4.75280212 L33.8049044,4.75280212 Z M13.1632989,37.1020549 L4.09531043,33.7466803 L13.3820443,4.43016995 L22.4500328,7.78554457 L13.1632989,37.1020549 L13.1632989,37.1020549 Z" id="Shape"></path>
                            <path d="M81.5709316,39.3174625 L77.2954546,43.5762073 C73.4176963,47.4262845 69.0427896,50.6741151 64.3099359,53.1691373 L41.6200787,65.1710542 C40.6257817,65.7087745 39.4127394,65.2570895 38.9155909,64.1601401 C38.4184424,63.0846995 38.8360471,61.772662 39.8502301,61.2349417 L40.1286332,61.08438 L40.1286332,61.08438 L52.5374596,54.5241924 C53.4323269,54.0509986 53.8101598,52.8895227 53.3726691,51.9216262 C52.9351784,50.9537297 51.8613377,50.5450622 50.9664704,51.0182561 L38.557644,57.5784437 L38.557644,57.5784437 L32.3134589,60.8908007 C31.3191619,61.428521 30.1061196,60.9768359 29.6089711,59.8798865 C29.3703398,59.363675 29.3305679,58.7614283 29.5095414,58.223708 C29.6885149,57.6644789 30.0464618,57.2343027 30.5237243,56.9761969 L35.236692,54.4811748 L35.236692,54.4811748 L48.7193592,47.3402493 C49.6142265,46.8670554 49.9920593,45.7055796 49.5545687,44.7376831 C49.117078,43.7697866 48.0432372,43.3611191 47.1483699,43.834313 L33.6458169,50.9967473 L33.6458169,50.9967473 L33.1287824,51.2763618 L26.685738,54.6962629 C26.2084754,54.9543686 25.6516691,54.9973863 25.1545206,54.803807 C24.6374862,54.6102277 24.2397674,54.223069 24.0011361,53.7068576 C23.5039876,52.631417 23.9215923,51.3193795 24.9357753,50.7816592 L27.1630005,49.5986745 L27.1630005,49.5986745 L31.7168807,47.1896876 L32.9895809,46.5229145 L32.9895809,46.5229145 L43.4495852,40.973641 C44.3444524,40.5004472 44.7222853,39.3389713 44.2847946,38.3710748 C43.847304,37.4031783 42.7734632,36.9945109 41.8785959,37.4677047 L30.5436103,43.4686632 L25.5920113,46.0927382 C24.5977143,46.6089497 23.384672,46.1787735 22.8875235,45.0818241 C22.6488922,44.5656126 22.6091203,43.9633659 22.7880938,43.4256456 C22.9670672,42.8664165 23.3250141,42.4362402 23.8022767,42.1781345 L32.4526605,37.5967576 C33.3475278,37.1235637 33.7253606,35.9620879 33.28787,34.9941914 C32.8503793,34.0262949 31.7765385,33.6176274 30.8816712,34.0908213 L22.2312875,38.6721982 C20.8790436,39.381989 19.8648606,40.6295 19.3875981,42.1566257 C18.9103355,43.6837513 18.9898793,45.3399298 19.6461153,46.802529 C20.06372,47.7058991 20.6602982,48.4587075 21.3761921,49.0179366 C20.1233779,50.803168 19.8052028,53.2551725 20.7796139,55.4060537 C21.4358499,56.8686529 22.5892344,57.9656023 24.0011361,58.4818138 C24.5977143,58.6969019 25.1942925,58.8044459 25.7908707,58.8044459 C25.7709847,59.7723425 25.9499582,60.740239 26.3675629,61.6221003 C27.341974,63.7729814 29.3504539,65.0204925 31.4185916,65.0204925 C32.2538011,65.0204925 33.0890106,64.8269132 33.8844481,64.396737 L35.1571483,63.7299638 C35.2168061,64.4612634 35.3957796,65.1710542 35.6940687,65.8593362 C36.6684797,68.0102174 38.6769596,69.2577284 40.7450974,69.2577284 C41.5803068,69.2577284 42.4155163,69.0641491 43.2109539,68.6339729 L65.9008111,56.632056 C70.9518398,53.9649633 75.6051497,50.5235534 79.7414252,46.4153704 L84.8123398,41.3607996 L96.4257286,35.2092795 C97.3205959,34.7360856 97.6984287,33.5746098 97.2609381,32.6067133 L83.0623771,1.31139225 C82.8436318,0.838198392 82.4856848,0.494057405 82.0283082,0.321986911 C81.5709316,0.149916418 81.0737831,0.192934041 80.6561784,0.408022158 L68.8041583,6.66708636 C67.909291,7.14028022 67.5314582,8.30175605 67.9689488,9.26965258 L81.5709316,39.3174625 L81.5709316,39.3174625 Z M80.6164065,4.77431093 L93.2042064,32.6282221 L84.5935945,37.1880902 L72.0057946,9.33417902 L80.6164065,4.77431093 L80.6164065,4.77431093 Z" id="Shape"></path>
                        </g>
                    </g>
                </g>
            </g>
        </g>
    </g>
</svg>