<?xml version="1.0" encoding="UTF-8" standalone="no"?>
<svg width="34px" height="33px" viewBox="0 0 34 33" version="1.1" xmlns="http://www.w3.org/2000/svg" xmlns:xlink="http://www.w3.org/1999/xlink">
    <!-- Generator: Sketch 39.1 (31720) - http://www.bohemiancoding.com/sketch -->
    <title>linkedin</title>
    <desc>Created with Sketch.</desc>
    <defs></defs>
    <g id="Welcome" stroke="none" stroke-width="1" fill="none" fill-rule="evenodd">
        <g id="Desktop" transform="translate(-100.000000, -1812.000000)">
            <g id="social" transform="translate(42.000000, 1812.000000)">
                <g id="linkedin" transform="translate(58.000000, 0.000000)">
                    <g id="Group">
                        <rect id="Rectangle-path" fill="#0084B1" x="0" y="0" width="33.0887883" height="32.9805329"></rect>
                        <g transform="translate(4.937206, 4.993421)" id="Shape" fill="#FFFFFF">
                            <path d="M2.85014709,0.0155592105 C4.36565136,0.0167894737 5.61556302,1.26442105 5.61229575,2.78249342 C5.60866545,4.37206579 4.28520395,5.570125 2.83148736,5.53560526 C1.35700545,5.56534868 0.061206827,4.33783553 0.0614972509,2.772 C0.0614972509,1.25334868 1.31627351,0.0144013158 2.85014709,0.0155592105 L2.85014709,0.0155592105 Z"></path>
                            <path d="M4.46025693,22.974875 L1.21324565,22.974875 C0.791840636,22.974875 0.450229578,22.6343816 0.450229578,22.2143553 L0.450229578,8.40776316 C0.450229578,7.98773684 0.791840636,7.64724342 1.21324565,7.64724342 L4.46025693,7.64724342 C4.88166194,7.64724342 5.223273,7.98773684 5.223273,8.40776316 L5.223273,22.2144276 C5.22320039,22.6343816 4.88166194,22.974875 4.46025693,22.974875 L4.46025693,22.974875 Z"></path>
                            <path d="M23.15288,12.4967237 C23.15288,9.60227632 20.7987768,7.25580263 17.8947561,7.25580263 L17.0619657,7.25580263 C15.473202,7.25580263 14.0695836,8.04592105 13.2253214,9.25360526 C13.1332571,9.38524342 13.0480177,9.52194737 12.9697484,9.66306579 C12.9426664,9.65901316 12.9266205,9.65691447 12.9262575,9.65763816 L12.9262575,7.96291447 C12.9262575,7.78857895 12.784458,7.64717105 12.6094776,7.64717105 L8.55842792,7.64717105 C8.38352016,7.64717105 8.2416481,7.78850658 8.2416481,7.96291447 L8.2416481,22.6592763 C8.2416481,22.8336118 8.38337494,22.9749474 8.55828271,22.9750197 L12.6976213,22.9760329 C12.8726017,22.9761053 13.0144737,22.8346974 13.0144737,22.6602895 L13.0144737,14.1698092 C13.0144737,12.7021776 14.1888752,11.4835658 15.6612515,11.4669934 C16.4128684,11.4585263 17.0942754,11.7587105 17.5853821,12.2485 C18.0700269,12.7312697 18.3696717,13.3987961 18.3696717,14.1357961 L18.3696717,22.661375 C18.3696717,22.8357105 18.5114712,22.9770461 18.6863063,22.9771184 L22.8358824,22.9781316 C23.0108627,22.9782039 23.1527348,22.8367961 23.1527348,22.6623882 L23.1527348,12.4967237 L23.15288,12.4967237 Z"></path>
                        </g>
                    </g>
                </g>
            </g>
        </g>
    </g>
</svg>