<?xml version="1.0" encoding="UTF-8" standalone="no"?>
<svg width="81px" height="87px" viewBox="0 0 81 87" version="1.1" xmlns="http://www.w3.org/2000/svg" xmlns:xlink="http://www.w3.org/1999/xlink">
    <!-- Generator: Sketch 39.1 (31720) - http://www.bohemiancoding.com/sketch -->
    <title>location</title>
    <desc>Created with Sketch.</desc>
    <defs></defs>
    <g id="Welcome" stroke="none" stroke-width="1" fill="none" fill-rule="evenodd">
        <g id="Desktop" transform="translate(-120.000000, -1086.000000)" fill="#FFFFFF">
            <g id="icon-Section" transform="translate(-34.000000, 834.000000)">
                <g id="local" transform="translate(154.000000, 252.000000)">
                    <g id="location" transform="translate(0.575001, 0.000000)">
                        <path d="M78.3630303,69.3922448 L53.16,60.7710069 C53.8929293,59.8128014 54.6353535,58.8258637 55.379596,57.8132079 C64.5628283,45.3169538 69.2193939,35.6266005 69.2193939,29.0115866 C69.2193939,13.0144365 56.1337374,0 40.0494949,0 C23.9652525,0 10.879798,13.0144365 10.879798,29.0117875 C10.879798,35.6268014 15.5363636,45.3169538 24.719596,57.8134088 C25.470101,58.8343025 26.2185859,59.8292771 26.9571717,60.794515 L1.73858586,69.3914411 C0.759191919,69.7253764 0.101212121,70.6411871 0.100606061,71.6711224 C0.1,72.7008568 0.757373737,73.6174711 1.73636364,73.9524111 L39.1965657,86.7665266 C39.4521212,86.8537275 39.7185859,86.8975289 39.9848485,86.8975289 C40.2505051,86.8975289 40.5163636,86.8541293 40.7711111,86.7673303 L78.3608081,73.9532148 C79.340202,73.6194804 79.9981818,72.7034688 79.9987879,71.6737344 C79.9991919,70.6437991 79.3420202,69.7271848 78.3630303,69.3922448 L78.3630303,69.3922448 Z M64.3709091,29.0117875 C64.3709091,39.4537968 48.2066667,59.9048245 40.0492929,69.1374734 C31.8919192,59.9074365 15.7280808,39.4608291 15.7280808,29.0117875 C15.7282828,15.6736628 26.6385859,4.8221709 40.0494949,4.8221709 C53.460404,4.8221709 64.3709091,15.6736628 64.3709091,29.0117875 L64.3709091,29.0117875 Z M39.9862626,81.9373233 L9.98969697,71.6761455 L30.1129293,64.8160046 C34.5638384,70.3516559 38.0614141,74.1617737 38.2614141,74.3791732 C38.7208081,74.8778661 39.3692929,75.1617714 40.0494949,75.1617714 C40.7294949,75.1617714 41.3781818,74.8778661 41.8375758,74.3791732 C42.0379798,74.1613718 45.5454545,70.3400023 50.0060606,64.791291 L70.1094949,71.6683095 L39.9862626,81.9373233 L39.9862626,81.9373233 Z" id="Shape"></path>
                        <path d="M40.0494949,39.9920716 C46.92,39.9920716 52.5094949,34.4329122 52.5094949,27.5996952 C52.5094949,20.7664781 46.92,15.2073187 40.0494949,15.2073187 C33.1789899,15.2073187 27.5894949,20.7664781 27.5894949,27.5996952 C27.5894949,34.4329122 33.1789899,39.9920716 40.0494949,39.9920716 L40.0494949,39.9920716 Z M47.6610101,27.5996952 C47.6610101,31.7738868 44.2466667,35.1699007 40.0494949,35.1699007 C35.8523232,35.1699007 32.4379798,31.7740878 32.4379798,27.5996952 C32.4379798,23.4257044 35.8523232,20.0294896 40.0494949,20.0294896 C44.2466667,20.0294896 47.6610101,23.4257044 47.6610101,27.5996952 L47.6610101,27.5996952 Z" id="Shape"></path>
                    </g>
                </g>
            </g>
        </g>
    </g>
</svg>