<?xml version="1.0" encoding="UTF-8" standalone="no"?>
<svg width="36px" height="36px" viewBox="0 0 36 36" version="1.1" xmlns="http://www.w3.org/2000/svg" xmlns:xlink="http://www.w3.org/1999/xlink">
    <!-- Generator: Sketch 39.1 (31720) - http://www.bohemiancoding.com/sketch -->
    <title>phone icon</title>
    <desc>Created with Sketch.</desc>
    <defs></defs>
    <g id="Welcome" stroke="none" stroke-width="1" fill="none" fill-rule="evenodd">
        <g id="Desktop" transform="translate(-767.000000, -19.000000)" fill="#FFFFFF">
            <g id="phone-icon" transform="translate(767.000000, 19.000000)">
                <path d="M28.4396962,22.2915949 C27.7029873,21.5245063 26.8143797,21.1143797 25.8726076,21.1143797 C24.9384304,21.1143797 24.0422278,21.5169114 23.2751392,22.284 L20.8751392,24.6764051 C20.6776709,24.5700759 20.4802025,24.4713418 20.2903291,24.3726076 C20.0169114,24.2358987 19.7586835,24.1067848 19.5384304,23.9700759 C17.2903291,22.5422278 15.2472911,20.6814684 13.2877975,18.2738734 C12.3384304,17.0738734 11.7004557,16.0637468 11.2371646,15.0384304 C11.8599494,14.4688101 12.4371646,13.8764051 12.9991899,13.3067848 C13.2118481,13.0941266 13.4245063,12.8738734 13.6371646,12.6612152 C15.2321013,11.0662785 15.2321013,9.0004557 13.6371646,7.40551899 L11.5637468,5.33210127 C11.3283038,5.09665823 11.0852658,4.85362025 10.8574177,4.61058228 C10.4017215,4.1396962 9.92324051,3.65362025 9.42956962,3.19792405 C8.69286076,2.46881013 7.8118481,2.08146835 6.88526582,2.08146835 C5.95868354,2.08146835 5.06248101,2.46881013 4.30298734,3.19792405 C4.29539241,3.20551899 4.29539241,3.20551899 4.28779747,3.21311392 L1.70551899,5.81817722 C0.733367089,6.79032911 0.178936709,7.97513924 0.0574177215,9.34982278 C-0.124860759,11.5675443 0.528303797,13.6333671 1.02956962,14.9852658 C2.25994937,18.3042532 4.09792405,21.3802025 6.8396962,24.6764051 C10.1662785,28.648557 14.1688101,31.7852658 18.740962,33.9953924 C20.4877975,34.8232405 22.819443,35.8029873 25.4245063,35.9700759 C25.584,35.9776709 25.7510886,35.9852658 25.9029873,35.9852658 C27.6574177,35.9852658 29.1308354,35.3548861 30.2852658,34.1017215 C30.2928608,34.0865316 30.3080506,34.0789367 30.3156456,34.0637468 C30.7105823,33.5852658 31.1662785,33.1523544 31.6447595,32.6890633 C31.9713418,32.3776709 32.305519,32.0510886 32.6321013,31.7093165 C33.384,30.927038 33.7789367,30.0156456 33.7789367,29.0814684 C33.7789367,28.1396962 33.3764051,27.2358987 32.6093165,26.4764051 L28.4396962,22.2915949 L28.4396962,22.2915949 Z M31.1586835,30.2890633 C31.1510886,30.2890633 31.1510886,30.2966582 31.1586835,30.2890633 C30.862481,30.6080506 30.5586835,30.8966582 30.2321013,31.2156456 C29.7384304,31.6865316 29.2371646,32.1802025 28.7662785,32.7346329 C27.9991899,33.5548861 27.0953924,33.9422278 25.9105823,33.9422278 C25.7966582,33.9422278 25.6751392,33.9422278 25.5612152,33.9346329 C23.305519,33.7903291 21.2093165,32.9093165 19.6371646,32.1574177 C15.3384304,30.0764051 11.5637468,27.1219747 8.42703797,23.3776709 C5.83716456,20.2561519 4.10551899,17.3700759 2.95868354,14.2713418 C2.25235443,12.3802025 1.99412658,10.9067848 2.10805063,9.51691139 C2.184,8.6283038 2.52577215,7.89159494 3.1561519,7.26121519 L5.74602532,4.67134177 C6.11817722,4.32197468 6.51311392,4.13210127 6.9004557,4.13210127 C7.37893671,4.13210127 7.76627848,4.42070886 8.00931646,4.66374684 C8.01691139,4.67134177 8.02450633,4.67893671 8.03210127,4.68653165 C8.49539241,5.11944304 8.93589873,5.5675443 9.39918987,6.04602532 C9.63463291,6.28906329 9.87767089,6.53210127 10.1207089,6.78273418 L12.1941266,8.8561519 C12.9991899,9.66121519 12.9991899,10.405519 12.1941266,11.2105823 C11.9738734,11.4308354 11.7612152,11.6510886 11.540962,11.8637468 C10.9029873,12.5169114 10.2953924,13.1245063 9.63463291,13.7169114 C9.61944304,13.7321013 9.60425316,13.7396962 9.59665823,13.7548861 C8.94349367,14.4080506 9.06501266,15.0460253 9.20172152,15.4789367 C9.20931646,15.5017215 9.21691139,15.5245063 9.22450633,15.5472911 C9.76374684,16.8536203 10.5232405,18.084 11.6776709,19.5498228 L11.6852658,19.5574177 C13.7814684,22.1396962 15.9915949,24.1523544 18.4295696,25.6941266 C18.740962,25.8915949 19.0599494,26.0510886 19.3637468,26.2029873 C19.6371646,26.3396962 19.8953924,26.4688101 20.1156456,26.605519 C20.1460253,26.6207089 20.1764051,26.6434937 20.2067848,26.6586835 C20.4650127,26.7877975 20.7080506,26.848557 20.9586835,26.848557 C21.5890633,26.848557 21.984,26.4536203 22.1131139,26.3245063 L24.7105823,23.727038 C24.9688101,23.4688101 25.3789367,23.1574177 25.8574177,23.1574177 C26.3283038,23.1574177 26.7156456,23.4536203 26.9510886,23.7118481 L26.9662785,23.727038 L31.1510886,27.9118481 C31.9333671,28.6865316 31.9333671,29.484 31.1586835,30.2890633 L31.1586835,30.2890633 Z" id="Shape"></path>
                <path d="M19.4472911,8.55994937 C21.4371646,8.89412658 23.2447595,9.83589873 24.6877975,11.2789367 C26.1308354,12.7219747 27.0650127,14.5295696 27.4067848,16.519443 C27.4903291,17.0207089 27.9232405,17.3700759 28.4169114,17.3700759 C28.4776709,17.3700759 28.5308354,17.362481 28.5915949,17.3548861 C29.1536203,17.2637468 29.5257722,16.7321013 29.4346329,16.1700759 C29.0245063,13.762481 27.8852658,11.5675443 26.1460253,9.8283038 C24.4067848,8.08906329 22.2118481,6.94982278 19.8042532,6.5396962 C19.2422278,6.44855696 18.7181772,6.82070886 18.619443,7.37513924 C18.5207089,7.92956962 18.8852658,8.46881013 19.4472911,8.55994937 L19.4472911,8.55994937 Z" id="Shape"></path>
                <path d="M35.9434937,15.8738734 C35.2675443,11.9093165 33.3991899,8.30172152 30.5283038,5.43083544 C27.6574177,2.55994937 24.0498228,0.691594937 20.0852658,0.0156455696 C19.5308354,-0.0830886076 19.0067848,0.296658228 18.9080506,0.851088608 C18.8169114,1.41311392 19.1890633,1.93716456 19.7510886,2.03589873 C23.2903291,2.63589873 26.5181772,4.31437975 29.0852658,6.87387342 C31.6523544,9.44096203 33.3232405,12.6688101 33.9232405,16.2080506 C34.0067848,16.7093165 34.4396962,17.0586835 34.9333671,17.0586835 C34.9941266,17.0586835 35.0472911,17.0510886 35.1080506,17.0434937 C35.662481,16.9599494 36.0422278,16.4283038 35.9434937,15.8738734 L35.9434937,15.8738734 Z" id="Shape"></path>
            </g>
        </g>
    </g>
</svg>