<?xml version="1.0" encoding="UTF-8" standalone="no"?>
<svg width="34px" height="33px" viewBox="0 0 34 33" version="1.1" xmlns="http://www.w3.org/2000/svg" xmlns:xlink="http://www.w3.org/1999/xlink">
    <!-- Generator: Sketch 39.1 (31720) - http://www.bohemiancoding.com/sketch -->
    <title>twitter</title>
    <desc>Created with Sketch.</desc>
    <defs></defs>
    <g id="Welcome" stroke="none" stroke-width="1" fill="none" fill-rule="evenodd">
        <g id="Desktop" transform="translate(-157.000000, -1812.000000)">
            <g id="social" transform="translate(42.000000, 1812.000000)">
                <g id="twitter" transform="translate(115.000000, 0.000000)">
                    <g id="Group">
                        <rect id="Rectangle-path" fill="#50ABF1" x="0" y="0" width="33.0887883" height="32.9805329"></rect>
                        <path d="M4.38373025,24.4476447 C6.58586911,25.8397237 9.19808646,26.6453289 11.9982806,26.6453289 C19.8650642,26.6453289 26.2421185,20.2884145 26.2421185,12.4480921 C26.2421185,12.2523355 26.23798,12.0580263 26.230429,11.8642961 C26.5149717,11.6411118 28.2747951,10.2352105 28.7061471,9.33140132 C28.7061471,9.33140132 27.2770439,9.923375 25.8783626,10.0628289 C25.8756036,10.0628289 25.8721911,10.0634803 25.8694321,10.0634803 C25.8694321,10.0634803 25.8721911,10.0621053 25.8769831,10.0587039 C26.0058587,9.972875 27.8076483,8.75035526 28.0516043,7.29372368 C28.0516043,7.29372368 27.0407841,7.83149342 25.6254761,8.30196053 C25.3911766,8.37953947 25.1459137,8.45581579 24.8930271,8.52651974 C23.9807332,7.55605921 22.6839907,6.95033553 21.2445775,6.95033553 C18.4835905,6.95033553 16.2463103,9.17964474 16.2463103,11.9295 C16.2463103,12.3175395 16.2911082,12.6952303 16.3758394,13.0578684 C15.9900113,13.0420921 10.1145189,12.7137566 6.11741544,7.88909868 C6.11741544,7.88909868 3.72853403,11.1396711 7.54100056,14.4822237 C7.54100056,14.4822237 6.38206417,14.4361974 5.38220745,13.84075 C5.38220745,13.84075 5.01496649,17.77875 9.3324801,18.7856118 C9.3324801,18.7856118 8.48291772,19.1063487 7.1275822,18.8776645 C7.1275822,18.8776645 7.88551585,22.0595592 11.7214341,22.3569211 C11.7214341,22.3569211 8.68817478,25.0881053 4.38235073,24.4472829 L4.38373025,24.4476447 L4.38373025,24.4476447 Z" id="Shape" fill="#FFFFFF"></path>
                    </g>
                </g>
            </g>
        </g>
    </g>
</svg>