<?xml version="1.0" encoding="UTF-8" standalone="no"?>
<svg width="25px" height="23px" viewBox="0 0 25 23" version="1.1" xmlns="http://www.w3.org/2000/svg" xmlns:xlink="http://www.w3.org/1999/xlink">
    <!-- Generator: Sketch 39.1 (31720) - http://www.bohemiancoding.com/sketch -->
    <title>warning</title>
    <desc>Created with Sketch.</desc>
    <defs></defs>
    <g id="Welcome" stroke="none" stroke-width="1" fill="none" fill-rule="evenodd">
        <g id="Desktop" transform="translate(-500.000000, -1532.000000)" fill="#393939">
            <g id="footer" transform="translate(0.000000, 1522.000000)">
                <g id="warning">
                    <g id="Group-2" transform="translate(491.000000, 0.000000)">
                        <g id="warning" transform="translate(8.800000, 10.057143)">
                            <g id="Capa_1" transform="translate(0.324616, 0.686043)">
                                <g id="Group">
                                    <path d="M12.156527,15.3925994 C11.4767911,15.3925994 10.9070124,15.952541 10.9070124,16.6205416 C10.9070124,17.2885421 11.4767911,17.8484838 12.156527,17.8484838 C12.8112726,17.8484838 13.4060415,17.2885421 13.3760532,16.6500122 C13.4060415,15.9476292 12.8412609,15.3925994 12.156527,15.3925994 L12.156527,15.3925994 Z" id="Shape"></path>
                                    <path d="M23.7220336,19.7444265 C24.5067287,18.4133372 24.5117268,16.8268359 23.7320297,15.5006583 L15.9050706,2.17994124 C15.1303716,0.83902835 13.7309153,0.043321801 12.161525,0.043321801 C10.5921348,0.043321801 9.19267848,0.843940119 8.41797946,2.17502947 L0.581024262,15.5104818 C-0.198672812,16.8513947 -0.193674754,18.4477196 0.596018436,19.7788089 C1.37571551,21.095163 2.77017374,21.8859577 4.32956788,21.8859577 L19.9634938,21.8859577 C21.527886,21.8859577 22.9323404,21.0853394 23.7220336,19.7444265 L23.7220336,19.7444265 Z M22.0226938,18.7817198 C21.5878627,19.5184852 20.8181618,19.9556326 19.9584958,19.9556326 L4.32456983,19.9556326 C3.47489994,19.9556326 2.71019704,19.5283087 2.2853621,18.8062787 C1.85552909,18.0744251 1.85053104,17.2001303 2.28036404,16.463365 L10.1173192,3.13282439 C10.5421542,2.40097083 11.301859,1.96873518 12.161525,1.96873518 C13.016193,1.96873518 13.7808959,2.4058826 14.2057308,3.13773616 L22.037688,16.4682767 C22.4575248,17.185395 22.4525268,18.0498663 22.0226938,18.7817198 L22.0226938,18.7817198 Z" id="Shape"></path>
                                    <path d="M11.8466474,6.77244508 C11.2518784,6.93944522 10.8820221,7.46991626 10.8820221,8.11335797 C10.9120105,8.50138771 10.9370008,8.89432921 10.9669891,9.28235895 C11.0519561,10.7608014 11.1369231,12.2097732 11.2218901,13.6882156 C11.2518784,14.189216 11.646725,14.5526869 12.156527,14.5526869 C12.6663289,14.5526869 13.0661736,14.1646572 13.0911638,13.658745 C13.0911638,13.3542153 13.0911638,13.0742445 13.1211522,12.764803 C13.1761308,11.8168317 13.2361075,10.8688603 13.2910862,9.9208889 C13.3210745,9.30691779 13.3760532,8.69294669 13.4060415,8.07897559 C13.4060415,7.85794599 13.3760532,7.66147524 13.2910862,7.46500449 C13.0361852,6.91488638 12.4414163,6.63491556 11.8466474,6.77244508 L11.8466474,6.77244508 Z" id="Shape"></path>
                                </g>
                            </g>
                        </g>
                    </g>
                </g>
            </g>
        </g>
    </g>
</svg>